<svg width="214" height="46" viewBox="0 0 428 93" fill="none" xmlns="http://www.w3.org/2000/svg" preserveAspectRatio="xMinYMin slice" overflow="visible">
<path d="M2.02686 90.5264C52.5645 69.6028 102.807 47.9546 153.607 27.6761C164.446 23.3493 175.167 18.4926 186.479 15.6204C203.075 11.4066 189.925 25.9126 187.925 29.4443C186.147 32.5851 175.704 48.6043 176.031 54.6808C176.139 56.7057 178.423 58.8865 180.451 58.8601C200.896 58.5946 220.067 48.6566 239.604 42.6252C250.129 39.376 323.14 16.3387 336.371 12.4056C343.765 10.2075 351.093 7.57316 358.714 6.37774C359.744 6.21625 361.386 7.59481 360.965 8.54776C359.706 11.3922 356.473 12.907 354.696 15.4597C351.17 20.5242 350.175 23.3238 358.071 22.2912C380.565 19.3497 404.436 8.93406 425.905 2.27881" stroke="white" stroke-width="3" stroke-linecap="round"/>
</svg>
