<svg viewBox="0 0 40 40" fill="none" xmlns="http://www.w3.org/2000/svg">
<path d="M40 20C40 31.0457 31.0457 40 20 40C8.9543 40 0 31.0457 0 20C0 8.9543 8.9543 0 20 0C31.0457 0 40 8.9543 40 20Z" fill="black"/>
<path fill-rule="evenodd" clip-rule="evenodd" d="M33.8076 25.861L26.4896 22.7547C25.856 24.2473 24.7272 25.4759 23.2935 26.2334C21.8597 26.9909 20.2087 27.2311 18.6186 26.9133C17.0285 26.5956 15.5965 25.7394 14.564 24.4891C13.5314 23.2388 12.9615 21.6707 12.9502 20.0492C12.9389 18.4277 13.4868 16.8519 14.5018 15.5872C15.5168 14.3226 16.9367 13.4465 18.5222 13.1066C20.1077 12.7667 21.7619 12.9838 23.2061 13.7212C24.6503 14.4586 25.7961 15.6714 26.4505 17.155L33.7244 13.9468C33.3153 13.0192 32.8158 12.1413 32.2365 11.3242C30.8445 9.36093 28.9912 7.74877 26.8215 6.64085C23.7488 5.07185 20.2292 4.61004 16.8557 5.33325C13.4823 6.05646 10.4612 7.92046 8.30173 10.6111C6.14223 13.3018 4.97628 16.6547 5.00037 20.1047C5.02445 23.5547 6.2371 26.891 8.43396 29.5513C10.6308 32.2115 13.6776 34.0332 17.0608 34.7092C20.444 35.3853 23.9569 34.8744 27.0074 33.2626C29.1614 32.1245 30.9919 30.4866 32.3564 28.5041C32.9243 27.679 33.4114 26.7942 33.8076 25.861ZM24.5704 11.0494C25.7164 11.6345 26.7306 12.4296 27.5655 13.3844L29.4202 12.5663C28.3563 11.2181 27.0078 10.1044 25.4572 9.31268C22.9991 8.05748 20.1833 7.68804 17.4846 8.2666C14.7858 8.84517 12.369 10.3364 10.6414 12.4889C8.91378 14.6415 7.98102 17.3238 8.00029 20.0838C8.01956 22.8438 8.98968 25.5128 10.7472 27.641C12.5047 29.7692 14.9421 31.2265 17.6486 31.7674C20.3552 32.3082 23.1655 31.8995 25.6059 30.6101C27.1453 29.7968 28.4781 28.6644 29.5231 27.3014L27.6571 26.5093C26.8356 27.4757 25.8326 28.2848 24.6949 28.8859C22.6511 29.9658 20.2975 30.3081 18.0307 29.8552C15.764 29.4022 13.7227 28.1817 12.2508 26.3993C10.7789 24.617 9.96638 22.3817 9.95024 20.0702C9.93411 17.7586 10.7153 15.5122 12.1622 13.7095C13.609 11.9067 15.6331 10.6578 17.8933 10.1733C20.1535 9.68873 22.5117 9.99814 24.5704 11.0494Z" fill="white"/>
<path d="M20 24C22.2091 24 24 22.2091 24 20C24 17.7909 22.2091 16 20 16C17.7909 16 16 17.7909 16 20C16 22.2091 17.7909 24 20 24Z" fill="white"/>
<path d="M32 20C32 21.1046 31.1046 22 30 22C28.8954 22 28 21.1046 28 20C28 18.8954 28.8954 18 30 18C31.1046 18 32 18.8954 32 20Z" fill="white"/>
<path d="M36 21C36.5523 21 37 20.5523 37 20C37 19.4477 36.5523 19 36 19C35.4477 19 35 19.4477 35 20C35 20.5523 35.4477 21 36 21Z" fill="white"/>
</svg>
